Coordinates
version=1
nRows=29
nColumns=22
inDegrees=yes

Units are S.I. units (second, meters, Newtons, ...)
If the header above contains a line with 'inDegrees', this indicates whether rotational values are in degrees (yes) or radians (no).

endheader
time	pelvis_tilt	pelvis_list	pelvis_rotation	pelvis_tx	pelvis_ty	pelvis_tz	hip_flexion_r	hip_adduction_r	hip_rotation_r	knee_angle_r	ankle_angle_r	subtalar_angle_r	hip_flexion_l	hip_adduction_l	hip_rotation_l	knee_angle_l	ankle_angle_l	subtalar_angle_l	lumbar_extension	lumbar_bending	lumbar_rotation
      1.15000000	      0.82397689	     -1.84188150	     -2.73564094	      1.06003734	      0.92422228	      0.07400694	     -4.35367553	      3.78713834	      5.02243789	     -6.32591759	      2.84031884	     -4.68230032	     -3.82514829	     -0.59696991	    -10.25969647	     -8.89420175	     10.50236023	      1.25919764	     -4.60403171	     -1.64009885	      1.42342874
      1.16000000	      0.85465556	     -1.84224212	     -2.70745365	      1.06001764	      0.92425681	      0.07395735	     -4.37777996	      3.78892639	      5.06862825	     -6.34657623	      2.83959090	     -4.68351041	     -3.83420598	     -0.59740514	    -10.21075041	     -8.93467901	     10.50091630	      1.25472008	     -4.62358787	     -1.64234203	      1.43508486
      1.17000000	      0.91595422	     -1.85037574	     -2.66209454	      1.06008009	      0.92433219	      0.07386964	     -4.48001583	      3.79454570	      5.14191456	     -6.29155340	      2.85339510	     -4.68614258	     -3.90271817	     -0.60001958	    -10.13649619	     -8.93143237	     10.52965690	      1.23139703	     -4.66911188	     -1.62851863	      1.40434081
      1.18000000	      0.94818549	     -1.84585929	     -2.63482149	      1.06006657	      0.92438173	      0.07380195	     -4.50707995	      3.78927129	      5.18937369	     -6.31037270	      2.84680149	     -4.68621834	     -3.92242611	     -0.59222006	    -10.09275605	     -8.95469761	     10.52342422	      1.22530324	     -4.69301242	     -1.62871619	      1.40622698
      1.19000000	      1.00728205	     -1.83843998	     -2.58685785	      1.06013157	      0.92447074	      0.07369901	     -4.61165169	      3.77555508	      5.25555190	     -6.24337528	      2.85337039	     -4.68050032	     -4.00854553	     -0.57464379	    -10.02330124	     -8.90673106	     10.51944013	      1.20057212	     -4.73925227	     -1.63149638	      1.38433728
      1.20000000	      1.03354580	     -1.83041105	     -2.55673199	      1.06011656	      0.92452234	      0.07362854	     -4.63109568	      3.76659367	      5.30346006	     -6.26487631	      2.84564913	     -4.67803101	     -4.03130118	     -0.56276418	     -9.99412266	     -8.90963056	     10.51255860	      1.19593023	     -4.75817400	     -1.63515801	      1.36830588
      1.21000000	      1.05826947	     -1.81510296	     -2.51538386	      1.06013061	      0.92457323	      0.07354517	     -4.67542714	      3.74824673	      5.37435497	     -6.23797340	      2.85298286	     -4.67025008	     -4.06839821	     -0.54130375	     -9.94172793	     -8.87939312	     10.50669744	      1.18883681	     -4.77180329	     -1.64619009	      1.33544799
      1.22000000	      1.09271613	     -1.79806301	     -2.47868458	      1.06015963	      0.92464136	      0.07345131	     -4.73292537	      3.72498355	      5.42963364	     -6.20556229	      2.84944951	     -4.65754780	     -4.12326653	     -0.51423702	     -9.88693747	     -8.83778959	     10.48655180	      1.17925270	     -4.79502524	     -1.65604161	      1.31021298
      1.23000000	      1.14827617	     -1.78262190	     -2.44187501	      1.06020575	      0.92474174	      0.07335862	     -4.82163338	      3.70159654	      5.46519667	     -6.15726017	      2.84027522	     -4.63180692	     -4.20797336	     -0.48721344	     -9.83794685	     -8.78219209	     10.45287302	      1.16577941	     -4.84273701	     -1.66518476	      1.29876334
      1.24000000	      1.16142781	     -1.77488189	     -2.41805395	      1.06019298	      0.92477875	      0.07329802	     -4.83014428	      3.69189578	      5.50774307	     -6.17119600	      2.83557126	     -4.62723471	     -4.22097827	     -0.47603217	     -9.82640741	     -8.77583856	     10.45426202	      1.16607380	     -4.84799608	     -1.66335804	      1.26942080
      1.25000000	      1.17525065	     -1.76256442	     -2.39343069	      1.06020009	      0.92481617	      0.07323255	     -4.85839341	      3.67496824	      5.56933422	     -6.14971376	      2.83705290	     -4.61491162	     -4.23841979	     -0.45800506	     -9.78798943	     -8.76451888	     10.44957049	      1.16758654	     -4.85007568	     -1.66535564	      1.24202030
      1.26000000	      1.18812989	     -1.75366555	     -2.36918111	      1.06018687	      0.92485572	      0.07318201	     -4.87835538	      3.66407170	      5.61945721	     -6.13953312	      2.83232320	     -4.60223693	     -4.25386012	     -0.44511238	     -9.76372693	     -8.74977364	     10.44311058	      1.16926947	     -4.85755960	     -1.66555072	      1.22039708
      1.27000000	      1.20338884	     -1.74556697	     -2.35656261	      1.06018887	      0.92489822	      0.07313866	     -4.90327792	      3.65160836	      5.67451692	     -6.12563186	      2.82661115	     -4.58481999	     -4.27264038	     -0.43139674	     -9.73613110	     -8.74063267	     10.43448107	      1.17195150	     -4.86281390	     -1.65954851	      1.19999970
      1.28000000	      1.20888369	     -1.74241466	     -2.34554711	      1.06019476	      0.92492523	      0.07311274	     -4.90798058	      3.64752862	      5.68230756	     -6.13027061	      2.82514566	     -4.58331526	     -4.27658189	     -0.42586415	     -9.73588487	     -8.74131029	     10.43380047	      1.17230393	     -4.85535531	     -1.65031007	      1.20073831
      1.29000000	      1.22983174	     -1.73702196	     -2.34650271	      1.06018621	      0.92498508	      0.07311233	     -4.95027941	      3.63767038	      5.78931216	     -6.09216808	      2.80813944	     -4.53812063	     -4.30970257	     -0.41407880	     -9.70949489	     -8.71661057	     10.41556745	      1.17703435	     -4.87142825	     -1.64451748	      1.18731181
      1.30000000	      1.23576078	     -1.73380407	     -2.34177634	      1.06018158	      0.92501789	      0.07310286	     -4.95253711	      3.63371669	      5.79800870	     -6.10060587	      2.80516199	     -4.53665448	     -4.31362058	     -0.40825539	     -9.70996443	     -8.71851498	     10.41484467	      1.17720654	     -4.86695668	     -1.63404683	      1.18448608
      1.31000000	      1.24719765	     -1.73102926	     -2.35356351	      1.06011718	      0.92506809	      0.07314081	     -4.94917973	      3.63197095	      5.86060450	     -6.12445463	      2.78985250	     -4.52601815	     -4.32257954	     -0.40260043	     -9.70704277	     -8.71736612	     10.40766939	      1.17615876	     -4.88388765	     -1.62691956	      1.15749692
      1.32000000	      1.25848028	     -1.73352152	     -2.39054252	      1.06011166	      0.92512569	      0.07321904	     -4.97419544	      3.63090863	      5.97830001	     -6.09816656	      2.76232774	     -4.48500912	     -4.34712141	     -0.40066185	     -9.73853978	     -8.69811829	     10.38688108	      1.16972638	     -4.88823723	     -1.61552658	      1.19511453
      1.33000000	      1.26358883	     -1.73084057	     -2.39943159	      1.06009538	      0.92516991	      0.07325102	     -4.97407979	      3.62805522	      5.98860654	     -6.10563863	      2.75855242	     -4.48303263	     -4.35029467	     -0.39594746	     -9.73880165	     -8.70176669	     10.38612027	      1.16979753	     -4.88799391	     -1.60640650	      1.18953175
      1.34000000	      1.27291039	     -1.73645140	     -2.45219593	      1.06004430	      0.92523310	      0.07339232	     -4.97956250	      3.63438195	      6.11744639	     -6.10685881	      2.73039494	     -4.44509424	     -4.36556880	     -0.40091013	     -9.79638259	     -8.69349151	     10.37592780	      1.17372147	     -4.90248691	     -1.59945402	      1.22687173
      1.35000000	      1.27813917	     -1.73500236	     -2.47357601	      1.06001160	      0.92529141	      0.07346436	     -4.97542426	      3.63401498	      6.15156041	     -6.11997386	      2.72062567	     -4.43464850	     -4.37014323	     -0.39880142	     -9.81233377	     -8.69276523	     10.37802419	      1.17920177	     -4.90877100	     -1.59239565	      1.21874257
      1.36000000	      1.27686010	     -1.74467404	     -2.52906144	      1.05995744	      0.92534917	      0.07363069	     -4.97094279	      3.64570014	      6.26321602	     -6.11585553	      2.70121335	     -4.39085760	     -4.37065281	     -0.41226609	     -9.88427144	     -8.69020062	     10.37995318	      1.20769460	     -4.91394447	     -1.58533791	      1.26831706
      1.37000000	      1.27676798	     -1.74354530	     -2.54423434	      1.05992267	      0.92540863	      0.07371695	     -4.96828899	      3.64725766	      6.26382082	     -6.11189589	      2.70065028	     -4.38877497	     -4.36785200	     -0.41298892	     -9.88531086	     -8.69026056	     10.38026441	      1.20950208	     -4.91800198	     -1.58404531	      1.26645917
      1.38000000	      1.26273034	     -1.76026412	     -2.62389510	      1.05987103	      0.92545464	      0.07391691	     -4.94623768	      3.66486684	      6.39633027	     -6.11382564	      2.66611584	     -4.31709358	     -4.35204341	     -0.43529571	     -9.99904546	     -8.70030326	     10.38764109	      1.27546187	     -4.90503366	     -1.56639400	      1.34112759
      1.39000000	      1.26208817	     -1.75964424	     -2.63909974	      1.05981781	      0.92551429	      0.07401553	     -4.94168929	      3.66690460	      6.39697237	     -6.11054750	      2.66523006	     -4.31517086	     -4.34748136	     -0.43837397	     -9.99890643	     -8.69991993	     10.38763149	      1.27737534	     -4.91189741	     -1.56798146	      1.33726270
      1.40000000	      1.23541046	     -1.77820280	     -2.71131218	      1.05972831	      0.92554069	      0.07420790	     -4.89919303	      3.68812567	      6.50842255	     -6.12088221	      2.61828435	     -4.24529560	     -4.30517172	     -0.46599395	    -10.09948235	     -8.73024383	     10.38865126	      1.34969249	     -4.88875785	     -1.54758141	      1.39472835
      1.41000000	      1.23611490	     -1.77817327	     -2.73123881	      1.05966338	      0.92559255	      0.07431997	     -4.89553239	      3.69095483	      6.50759582	     -6.11782879	      2.61729829	     -4.24379686	     -4.30067375	     -0.46993918	    -10.09723387	     -8.73295682	     10.38832613	      1.35123915	     -4.89360613	     -1.55145593	      1.38960209
      1.42000000	      1.23480296	     -1.78270577	     -2.77225144	      1.05953531	      0.92563889	      0.07445343	     -4.87174147	      3.69792212	      6.55729364	     -6.14269101	      2.58352407	     -4.22434669	     -4.27195475	     -0.48121402	    -10.13122126	     -8.77797601	     10.38093279	      1.37320328	     -4.90278794	     -1.54670430	      1.39202480
      1.43000000	      1.21096464	     -1.79623933	     -2.82463706	      1.05944115	      0.92564146	      0.07462690	     -4.84636547	      3.71473245	      6.59839510	     -6.12399274	      2.55095386	     -4.19008290	     -4.21986453	     -0.50710068	    -10.22216228	     -8.82764391	     10.39037778	      1.41228509	     -4.87493845	     -1.53808459	      1.42829756
